<svg width="35" height="41" viewBox="0 0 35 41" fill="none" xmlns="http://www.w3.org/2000/svg">
<path d="M35 34.9666L31.3756 31.4312C28.7467 33.9961 25.2538 35.5447 21.5441 35.79C17.8343 36.0354 14.1591 34.9609 11.1993 32.7656L8.09692 36.7474C12.044 39.6737 16.9445 41.1057 21.8908 40.7783C26.8372 40.4509 31.4944 38.3862 35 34.9666Z" fill="#575A89"/>
<path d="M5.12564 20.825C5.12564 16.8469 6.7457 13.0317 9.62943 10.2188C12.5132 7.40589 16.4243 5.8256 20.5025 5.8256V0.825806C16.2106 0.825764 12.0268 2.1396 8.54097 4.58212C5.05514 7.02464 2.44304 10.4727 1.07285 14.4402C-0.297346 18.4077 -0.356527 22.6946 0.903647 26.6967C2.16382 30.6988 4.6798 34.2142 8.09694 36.7474L11.1993 32.7656C9.31034 31.368 7.77894 29.5626 6.72518 27.4909C5.67141 25.4192 5.12392 23.1376 5.12564 20.825Z" fill="#12C2DD"/>
</svg>
