<svg width="30" height="30" viewBox="0 0 30 30" fill="none" xmlns="http://www.w3.org/2000/svg">
<path fill-rule="evenodd" clip-rule="evenodd" d="M8.81591 0.906756C10.4155 0.836629 10.9255 0.821045 15 0.821045C19.0745 0.821045 19.5845 0.837927 21.1827 0.906756C22.7809 0.975584 23.8718 1.21843 24.8264 1.57037C25.8259 1.93009 26.7327 2.49241 27.4827 3.21965C28.2464 3.93261 28.8355 4.79492 29.2118 5.74813C29.5827 6.65718 29.8364 7.6961 29.91 9.21552C29.9836 10.7414 30 11.2271 30 15.1062C30 18.9866 29.9823 19.4723 29.91 20.9956C29.8377 22.515 29.5827 23.5539 29.2118 24.463C28.8354 25.4163 28.2454 26.2801 27.4827 26.994C26.7327 27.7213 25.8259 28.2823 24.8264 28.6407C23.8718 28.994 22.7809 29.2355 21.1855 29.3056C19.5845 29.3758 19.0745 29.3914 15 29.3914C10.9255 29.3914 10.4155 29.3745 8.81591 29.3056C7.22045 29.2368 6.12955 28.994 5.175 28.6407C4.17398 28.2823 3.26703 27.7203 2.51727 26.994C1.75415 26.2807 1.16361 25.4173 0.786818 24.4643C0.417273 23.5552 0.163636 22.5163 0.09 20.9969C0.0163636 19.471 0 18.9853 0 15.1062C0 11.2258 0.0177273 10.7401 0.09 9.21812C0.162273 7.6961 0.417273 6.65718 0.786818 5.74813C1.16417 4.79502 1.75516 3.93172 2.51864 3.21835C3.26733 2.49176 4.17337 1.92937 5.17364 1.57037C6.12818 1.21843 7.21909 0.976883 8.81455 0.906756H8.81591ZM21.0614 3.47808C19.4795 3.40926 19.005 3.39497 15 3.39497C10.995 3.39497 10.5205 3.40926 8.93864 3.47808C7.47545 3.54172 6.68182 3.77418 6.15273 3.97027C5.45318 4.23 4.95273 4.53778 4.42773 5.03776C3.93006 5.49885 3.54706 6.06017 3.30682 6.68056C3.10091 7.18443 2.85682 7.94025 2.79 9.3337C2.71773 10.8401 2.70273 11.2921 2.70273 15.1062C2.70273 18.9203 2.71773 19.3723 2.79 20.8787C2.85682 22.2722 3.10091 23.028 3.30682 23.5318C3.54682 24.1513 3.93 24.7136 4.42773 25.1746C4.91182 25.6486 5.50227 26.0136 6.15273 26.2421C6.68182 26.4382 7.47545 26.6707 8.93864 26.7343C10.5205 26.8031 10.9936 26.8174 15 26.8174C19.0064 26.8174 19.4795 26.8031 21.0614 26.7343C22.5245 26.6707 23.3182 26.4382 23.8473 26.2421C24.5468 25.9824 25.0473 25.6746 25.5723 25.1746C26.07 24.7136 26.4532 24.1513 26.6932 23.5318C26.8991 23.028 27.1432 22.2722 27.21 20.8787C27.2823 19.3723 27.2973 18.9203 27.2973 15.1062C27.2973 11.2921 27.2823 10.8401 27.21 9.3337C27.1432 7.94025 26.8991 7.18443 26.6932 6.68056C26.4205 6.01435 26.0973 5.53774 25.5723 5.03776C25.0881 4.56385 24.4987 4.19911 23.8473 3.97027C23.3182 3.77418 22.5245 3.54172 21.0614 3.47808ZM13.0841 19.5099C14.1541 19.9341 15.3455 19.9914 16.4549 19.6719C17.5643 19.3524 18.5228 18.6761 19.1667 17.7584C19.8107 16.8406 20.1001 15.7385 19.9855 14.6401C19.871 13.5418 19.3596 12.5154 18.5386 11.7362C18.0153 11.2381 17.3826 10.8568 16.6859 10.6196C15.9893 10.3823 15.246 10.2952 14.5098 10.3643C13.7735 10.4335 13.0625 10.6573 12.4279 11.0195C11.7933 11.3818 11.251 11.8735 10.84 12.4594C10.4289 13.0452 10.1593 13.7105 10.0507 14.4075C9.94206 15.1044 9.99702 15.8156 10.2116 16.4899C10.4263 17.1642 10.7952 17.7848 11.2919 18.307C11.7886 18.8292 12.4007 19.24 13.0841 19.5099ZM9.54818 9.9142C10.2641 9.23237 11.1141 8.69152 12.0495 8.32252C12.9849 7.95352 13.9875 7.7636 15 7.7636C16.0125 7.7636 17.0151 7.95352 17.9505 8.32252C18.8859 8.69152 19.7359 9.23237 20.4518 9.9142C21.1678 10.596 21.7357 11.4055 22.1231 12.2963C22.5106 13.1872 22.71 14.142 22.71 15.1062C22.71 16.0704 22.5106 17.0252 22.1231 17.9161C21.7357 18.8069 21.1678 19.6164 20.4518 20.2982C19.0059 21.6752 17.0448 22.4488 15 22.4488C12.9552 22.4488 10.9941 21.6752 9.54818 20.2982C8.10227 18.9212 7.28997 17.0536 7.28997 15.1062C7.28997 13.1588 8.10227 11.2912 9.54818 9.9142ZM24.42 8.85709C24.5974 8.69771 24.7394 8.50604 24.8377 8.29345C24.9359 8.08085 24.9884 7.85164 24.9919 7.61939C24.9955 7.38714 24.9501 7.15657 24.8584 6.94134C24.7667 6.7261 24.6306 6.53058 24.4581 6.36633C24.2857 6.20209 24.0804 6.07247 23.8544 5.98515C23.6283 5.89783 23.3862 5.85458 23.1424 5.85797C22.8985 5.86135 22.6578 5.91131 22.4346 6.00486C22.2113 6.09842 22.0101 6.23369 21.8427 6.40265C21.5172 6.73124 21.339 7.16771 21.346 7.61939C21.3529 8.07107 21.5444 8.50241 21.8798 8.82183C22.2152 9.14125 22.6681 9.32361 23.1424 9.33019C23.6167 9.33678 24.075 9.16707 24.42 8.85709Z" fill="white"/>
</svg>
