<svg width="50" height="40" viewBox="0 0 50 40" fill="none" xmlns="http://www.w3.org/2000/svg">
<path fill-rule="evenodd" clip-rule="evenodd" d="M7.5 10C7.5 9.46957 7.76339 8.96086 8.23223 8.58579C8.70107 8.21071 9.33696 8 10 8H40C40.663 8 41.2989 8.21071 41.7678 8.58579C42.2366 8.96086 42.5 9.46957 42.5 10C42.5 10.5304 42.2366 11.0391 41.7678 11.4142C41.2989 11.7893 40.663 12 40 12H10C9.33696 12 8.70107 11.7893 8.23223 11.4142C7.76339 11.0391 7.5 10.5304 7.5 10Z" fill="#F8F8F8"/>
<path fill-rule="evenodd" clip-rule="evenodd" d="M7.5 20C7.5 19.4696 7.76339 18.9609 8.23223 18.5858C8.70107 18.2107 9.33696 18 10 18H40C40.663 18 41.2989 18.2107 41.7678 18.5858C42.2366 18.9609 42.5 19.4696 42.5 20C42.5 20.5304 42.2366 21.0391 41.7678 21.4142C41.2989 21.7893 40.663 22 40 22H10C9.33696 22 8.70107 21.7893 8.23223 21.4142C7.76339 21.0391 7.5 20.5304 7.5 20Z" fill="#F8F8F8"/>
<path fill-rule="evenodd" clip-rule="evenodd" d="M7.5 30C7.5 29.4696 7.76339 28.9609 8.23223 28.5858C8.70107 28.2107 9.33696 28 10 28H40C40.663 28 41.2989 28.2107 41.7678 28.5858C42.2366 28.9609 42.5 29.4696 42.5 30C42.5 30.5304 42.2366 31.0391 41.7678 31.4142C41.2989 31.7893 40.663 32 40 32H10C9.33696 32 8.70107 31.7893 8.23223 31.4142C7.76339 31.0391 7.5 30.5304 7.5 30Z" fill="#F8F8F8"/>
</svg>
