<svg width="45" height="28" viewBox="0 0 45 28" fill="none" xmlns="http://www.w3.org/2000/svg">
<path d="M0 0.433105V25.0474H23.1852C22.7078 23.7237 22.4652 22.3387 22.4663 20.945H8.98652C8.98652 19.857 8.51312 18.8136 7.67047 18.0442C6.82783 17.2749 5.68495 16.8427 4.49326 16.8427V8.63788C6.98702 8.63788 8.98652 6.81232 8.98652 4.53549H31.4528C31.4528 5.62352 31.9262 6.66697 32.7689 7.43632C33.6115 8.20567 34.7544 8.63788 35.9461 8.63788V8.76096C37.4513 8.76096 38.9566 9.0071 40.4393 9.45836V0.433105H0ZM20.2197 6.58669C16.4004 6.64822 13.4798 9.25324 13.4798 12.7403C13.4798 16.2273 16.4004 18.7708 20.2197 18.8939C21.0734 18.8939 21.9496 18.7298 22.7808 18.4221C23.3874 16.1658 24.3984 14.0325 26.8922 11.9403C26.6226 9.21222 23.7918 6.52515 20.2197 6.58669ZM41.8547 13.2941L33.1603 21.2938L30.1273 18.4836L26.9596 21.3963L33.1378 27.0986L45 16.1863L41.8547 13.2941Z" fill="white"/>
</svg>
