<svg width="52" height="61" viewBox="0 0 52 61" fill="none" xmlns="http://www.w3.org/2000/svg">
<path d="M44.1123 4.74808C41.2819 1.54012 36.1656 0.164795 29.6203 0.164795H10.6241C9.97646 0.164819 9.35011 0.394563 8.85762 0.812722C8.36513 1.23088 8.03881 1.81003 7.93732 2.44603L0.0276287 52.3301C-0.12959 53.3138 0.636394 54.2045 1.63902 54.2045H13.3666L16.312 35.6276L16.2206 36.2093C16.4304 34.8962 17.5598 33.9277 18.8971 33.9277H24.4701C35.4181 33.9277 43.9906 29.5058 46.4947 16.7142C46.5691 16.3359 46.6334 15.9676 46.6891 15.6079C46.373 15.4415 46.373 15.4415 46.6891 15.6079C47.4348 10.88 46.684 7.66174 44.1123 4.74808Z" fill="#27346A"/>
<path d="M20.7994 13.9047C21.12 13.7529 21.4707 13.6743 21.8258 13.6745H36.7185C38.482 13.6745 40.1269 13.7886 41.6301 14.0292C42.0507 14.0959 42.4691 14.1755 42.8848 14.2679C43.4739 14.3972 44.0562 14.5554 44.6296 14.742C45.3686 14.9874 46.0568 15.2732 46.6893 15.6079C47.4348 10.8782 46.684 7.66174 44.1122 4.74808C41.2803 1.54012 36.1656 0.164795 29.6203 0.164795H10.6224C9.28484 0.164795 8.14693 1.13312 7.93731 2.44603L0.0276222 52.3283C-0.129597 53.3136 0.636388 54.2031 1.63739 54.2031H13.3666L19.4772 15.6701C19.5373 15.2914 19.6891 14.9328 19.9194 14.6253C20.1497 14.3178 20.4517 14.0705 20.7994 13.9047Z" fill="#27346A"/>
<path d="M46.4947 16.7142C43.9906 29.504 35.4183 33.9277 24.4701 33.9277H18.8955C17.5581 33.9277 16.4285 34.8962 16.2207 36.2093L12.5566 59.3075C12.4197 60.1684 13.0892 60.9485 13.965 60.9485H23.8511C24.4174 60.9483 24.9651 60.7473 25.3957 60.3815C25.8262 60.0156 26.1114 59.5091 26.1999 58.9529L26.2962 58.4519L28.1594 46.7092L28.2795 46.0602C28.368 45.5041 28.6531 44.9975 29.0836 44.6317C29.5141 44.2659 30.0617 44.0648 30.628 44.0646H32.1076C41.6843 44.0646 49.1831 40.1958 51.3744 29.0065C52.289 24.3305 51.8158 20.4265 49.3961 17.6843C48.6622 16.8538 47.7508 16.1678 46.6891 15.6079C46.6316 15.9695 46.5692 16.3359 46.4947 16.7142Z" fill="#2790C3"/>
<path d="M44.0684 14.5689C43.6779 14.4555 43.2838 14.3552 42.8866 14.268C42.4707 14.177 42.0523 14.098 41.6319 14.0308C40.1271 13.7886 38.4834 13.6743 36.7183 13.6743H21.8274C21.472 13.6735 21.1211 13.7529 20.801 13.9064C20.4529 14.0716 20.1506 14.3188 19.9202 14.6264C19.6897 14.934 19.5382 15.2928 19.4787 15.6718L16.3136 35.6277L16.2222 36.2094C16.4304 34.8963 17.5597 33.9277 18.8973 33.9277H24.4719C35.4199 33.9277 43.9922 29.5058 46.4963 16.7142C46.5709 16.3359 46.6334 15.9693 46.6909 15.6079C46.0568 15.2751 45.3704 14.9874 44.6312 14.7436C44.4447 14.6822 44.2571 14.6239 44.0686 14.5689" fill="#1F264F"/>
</svg>
