<svg width="52" height="52" viewBox="0 0 52 52" fill="none" xmlns="http://www.w3.org/2000/svg">
<path d="M37.2377 12.8051C36.8701 12.8073 36.5025 12.8296 36.1371 12.8708L35.651 12.9228L35.4221 12.4895C33.4916 8.84442 29.2832 6.48926 24.6942 6.48926C18.1754 6.48926 12.8721 11.1115 12.8721 16.7939C12.8736 17.1673 12.8974 17.5393 12.9443 17.909L13.0166 18.5041L12.4446 18.6854C9.54484 19.6041 7.67212 21.7086 7.67212 24.045C7.67212 27.2553 11.1756 29.8669 15.4815 29.8669C17.1462 29.8835 18.7857 29.4631 20.2366 28.6478L20.6635 28.4022L20.8007 28.5105L21.0484 28.7091C23.0085 30.2742 26.1632 31.2095 29.4861 31.2095C35.0927 31.2095 39.8283 28.5445 39.8283 25.3884C39.8277 25.193 39.8091 24.9982 39.7727 24.8063L39.6723 24.2646L39.6572 24.1794L40.2653 23.9873C43.1693 23.07 45.0471 20.9648 45.0471 18.6248C45.0486 15.4188 41.5443 12.8051 37.2377 12.8051Z" fill="#B1CC33"/>
<path d="M28.5046 20.22C28.5046 20.22 32.0558 25.5146 39.6579 24.1835L40.3014 26.7633L37.4125 30.3181L30.758 31.7856L21.9974 29.9404L20.6642 28.4049C22.5166 27.7423 24.1894 26.6579 25.5505 25.2373C26.9115 23.8168 27.9234 22.099 28.5061 20.22H28.5046Z" fill="#5C9E31"/>
<path d="M25.8483 46.181V38.116L20.337 32.6877" stroke="black" stroke-width="2" stroke-linecap="round" stroke-linejoin="round"/>
<path d="M25.8477 38.116L29.0023 34.8328" stroke="black" stroke-width="2" stroke-linecap="round" stroke-linejoin="round"/>
<path d="M45.7701 18.6139C45.7701 15.0027 41.9503 12.0705 37.2385 12.0705C36.8451 12.0737 36.4522 12.0978 36.0613 12.1427C34.0651 8.37491 29.7325 5.7583 24.6942 5.7583C17.766 5.7583 12.15 10.6954 12.15 16.7852C12.1514 17.1882 12.1774 17.5897 12.228 17.9891C9.13108 18.9714 6.95142 21.3077 6.95142 24.037C6.95142 27.6481 10.772 30.5811 15.483 30.5811C17.2741 30.5962 19.0378 30.1427 20.5992 29.2652C22.615 30.8757 25.8404 31.9237 29.4876 31.9237C35.5984 31.9237 40.5521 28.9936 40.5521 25.3804C40.5511 25.1412 40.5284 24.9026 40.4842 24.6675C43.5854 23.6853 45.7709 21.3467 45.7709 18.6139H45.7701Z" stroke="black" stroke-width="2" stroke-miterlimit="10" stroke-linecap="round"/>
</svg>
